<svg id="Capa_1" enable-background="new 0 0 512.027 512.027" height="512" viewBox="0 0 512.027 512.027" width="512" xmlns="http://www.w3.org/2000/svg"><g><path d="m350.097 64.5h-12.943c-.566-11.124-9.794-20-21.057-20h-5.416c-.644 0-1.167-.523-1.167-1.167v-15.083c0-15.577-12.673-28.25-28.25-28.25h-106.852c-4.143 0-7.5 3.357-7.5 7.5s3.357 7.5 7.5 7.5h106.852c7.306 0 13.25 5.944 13.25 13.25v15.083c0 8.914 7.253 16.167 16.167 16.167h5.416c3.354 0 6.084 2.729 6.084 6.083v45.334c0 7.766-6.318 14.083-14.084 14.083h-218.166c-7.766 0-14.084-6.317-14.084-14.083v-45.334c0-3.354 2.729-6.083 6.084-6.083h5.416c8.914 0 16.167-7.253 16.167-16.167v-15.083c0-7.306 5.944-13.25 13.25-13.25h22.917c4.143 0 7.5-3.357 7.5-7.5s-3.357-7.5-7.5-7.5h-22.917c-15.577 0-28.25 12.673-28.25 28.25v15.083c0 .644-.523 1.167-1.167 1.167h-5.416c-11.263 0-20.491 8.876-21.057 20h-12.943c-26.422 0-47.917 21.495-47.917 47.917v351.666c0 26.422 21.495 47.917 47.917 47.917h302.166c26.422 0 47.917-21.495 47.917-47.917v-351.666c0-26.422-21.495-47.917-47.917-47.917zm32.917 399.583c0 18.15-14.767 32.917-32.917 32.917h-302.166c-18.15 0-32.917-14.767-32.917-32.917v-351.666c0-18.15 14.767-32.917 32.917-32.917h12.916v20h-.728c-13.819 0-25.062 11.242-25.062 25.062v231.105c0 4.143 3.357 7.5 7.5 7.5s7.5-3.357 7.5-7.5v-231.105c0-5.548 4.514-10.062 10.062-10.062h.948c1.771 14.352 14.04 25.5 28.864 25.5h218.166c14.824 0 27.093-11.148 28.864-25.5h.948c5.548 0 10.062 4.514 10.062 10.062v327.377c0 5.548-4.514 10.062-10.062 10.062h-277.79c-5.548 0-10.062-4.514-10.062-10.062v-61.271c0-4.143-3.357-7.5-7.5-7.5s-7.5 3.357-7.5 7.5v61.271c.001 13.819 11.243 25.061 25.062 25.061h277.789c13.819 0 25.062-11.242 25.062-25.062v-327.376c0-13.819-11.242-25.062-25.062-25.062h-.728v-20h12.916c18.15 0 32.917 14.767 32.917 32.917v351.666z"/><path d="m116.227 62.909c0 4.143 3.357 7.5 7.5 7.5s7.5-3.357 7.5-7.5c0-3.454 2.811-6.265 6.265-6.265s6.265 2.811 6.265 6.265c0 4.143 3.357 7.5 7.5 7.5s7.5-3.357 7.5-7.5c0-11.726-9.539-21.265-21.265-21.265s-21.265 9.54-21.265 21.265z"/><path d="m254.271 62.909c0-3.454 2.811-6.265 6.265-6.265s6.265 2.811 6.265 6.265c0 4.143 3.357 7.5 7.5 7.5s7.5-3.357 7.5-7.5c0-11.726-9.539-21.265-21.265-21.265s-21.265 9.539-21.265 21.265c0 4.143 3.357 7.5 7.5 7.5s7.5-3.357 7.5-7.5z"/><path d="m199.014 93.149c7.763 0 15.146-3.361 20.255-9.223 2.722-3.123 2.397-7.86-.725-10.582-3.124-2.723-7.861-2.396-10.582.725-2.261 2.593-5.521 4.08-8.948 4.08s-6.688-1.487-8.948-4.08c-2.722-3.122-7.458-3.448-10.582-.725-3.122 2.722-3.446 7.459-.725 10.582 5.109 5.862 12.492 9.223 20.255 9.223z"/><path d="m100.681 237.167h36.333c11.487 0 20.833-9.346 20.833-20.834v-26.333c0-11.487-9.346-20.833-20.833-20.833h-36.333c-11.488 0-20.834 9.346-20.834 20.833v26.333c0 11.488 9.345 20.834 20.834 20.834zm-5.834-47.167c0-3.217 2.617-5.833 5.834-5.833h36.333c3.217 0 5.833 2.616 5.833 5.833v26.333c0 3.217-2.616 5.834-5.833 5.834h-36.333c-3.217 0-5.834-2.617-5.834-5.834z"/><path d="m100.681 334.833h36.333c11.487 0 20.833-9.346 20.833-20.833v-26.333c0-11.488-9.346-20.834-20.833-20.834h-36.333c-11.488 0-20.834 9.346-20.834 20.834v26.333c0 11.487 9.345 20.833 20.834 20.833zm-5.834-47.166c0-3.217 2.617-5.834 5.834-5.834h36.333c3.217 0 5.833 2.617 5.833 5.834v26.333c0 3.217-2.616 5.833-5.833 5.833h-36.333c-3.217 0-5.834-2.616-5.834-5.833z"/><path d="m100.681 432.833h36.333c11.487 0 20.833-9.346 20.833-20.833v-26.333c0-11.488-9.346-20.834-20.833-20.834h-36.333c-11.488 0-20.834 9.346-20.834 20.834v26.333c0 11.487 9.345 20.833 20.834 20.833zm-5.834-47.166c0-3.217 2.617-5.834 5.834-5.834h36.333c3.217 0 5.833 2.617 5.833 5.834v26.333c0 3.217-2.616 5.833-5.833 5.833h-36.333c-3.217 0-5.834-2.616-5.834-5.833z"/><path d="m185.014 193.167h105c4.143 0 7.5-3.357 7.5-7.5s-3.357-7.5-7.5-7.5h-105c-4.143 0-7.5 3.357-7.5 7.5s3.357 7.5 7.5 7.5z"/><path d="m185.014 228.167h75c4.143 0 7.5-3.357 7.5-7.5s-3.357-7.5-7.5-7.5h-75c-4.143 0-7.5 3.357-7.5 7.5s3.357 7.5 7.5 7.5z"/><path d="m185.014 290.833h125c4.143 0 7.5-3.357 7.5-7.5s-3.357-7.5-7.5-7.5h-125c-4.143 0-7.5 3.357-7.5 7.5s3.357 7.5 7.5 7.5z"/><path d="m185.014 325.833h95c4.143 0 7.5-3.357 7.5-7.5s-3.357-7.5-7.5-7.5h-95c-4.143 0-7.5 3.357-7.5 7.5s3.357 7.5 7.5 7.5z"/><path d="m185.014 388.833h95c4.143 0 7.5-3.357 7.5-7.5s-3.357-7.5-7.5-7.5h-95c-4.143 0-7.5 3.357-7.5 7.5s3.357 7.5 7.5 7.5z"/><path d="m185.014 423.833h35c4.143 0 7.5-3.357 7.5-7.5s-3.357-7.5-7.5-7.5h-35c-4.143 0-7.5 3.357-7.5 7.5s3.357 7.5 7.5 7.5z"/><path d="m485.681 0h-41.334c-14.521 0-26.333 11.812-26.333 26.333v431.99c0 10.929 4.634 21.419 12.714 28.78l22.183 20.211c3.45 3.143 7.776 4.713 12.104 4.713 4.326 0 8.653-1.571 12.104-4.714l22.183-20.21c8.08-7.361 12.714-17.852 12.714-28.78v-60.323c0-4.143-3.357-7.5-7.5-7.5s-7.5 3.357-7.5 7.5v53.06c-7.606-3.988-15.928-6.537-24.5-7.48v-368.066h24.5v287.819c0 4.143 3.357 7.5 7.5 7.5s7.5-3.357 7.5-7.5v-337c-.002-14.521-11.815-26.333-26.335-26.333zm3.517 476.016-22.183 20.209c-1.141 1.041-2.863 1.04-4.004.001l-22.183-20.21c-2.637-2.402-4.677-5.347-6.01-8.586 8.864-6.001 19.411-9.262 30.195-9.262 10.78 0 21.331 3.262 30.194 9.263-1.333 3.238-3.372 6.182-6.009 8.585zm-31.684-32.437c-8.573.944-16.894 3.492-24.5 7.48v-375.545h24.5zm-24.5-383.065v-34.181c0-6.249 5.084-11.333 11.333-11.333h41.334c6.249 0 11.333 5.084 11.333 11.333v34.181z"/></g></svg>