<svg id="Capa_1" enable-background="new 0 0 512 512" height="512" viewBox="0 0 512 512" width="512" xmlns="http://www.w3.org/2000/svg"><g><path d="m198.543 49.443c4.629 0 8.382-3.752 8.382-8.382s-3.752-8.382-8.382-8.382-8.382 3.752-8.382 8.382 3.753 8.382 8.382 8.382z"/><path d="m148.356 91.897h100.374c4.143 0 7.501-3.359 7.501-7.501 0-4.143-3.358-7.501-7.501-7.501h-100.374c-4.143 0-7.501 3.358-7.501 7.501 0 4.142 3.359 7.501 7.501 7.501z"/><path d="m290.204 373.475v14.372c0 4.143 3.358 7.501 7.501 7.501s7.501-3.358 7.501-7.501v-14.372c0-4.143-3.358-7.501-7.501-7.501-4.142 0-7.501 3.358-7.501 7.501z"/><path d="m439.787 373.475v14.372c0 4.143 3.358 7.501 7.501 7.501s7.501-3.358 7.501-7.501v-14.372c0-4.143-3.358-7.501-7.501-7.501s-7.501 3.358-7.501 7.501z"/><path d="m386.56 382.491c-7.45 8.548-20.686 8.537-28.127 0-2.723-3.123-7.46-3.449-10.584-.727-3.123 2.722-3.448 7.46-.727 10.583 13.428 15.408 37.332 15.393 50.747 0 2.722-3.123 2.396-7.861-.727-10.583-3.122-2.722-7.86-2.398-10.582.727z"/><path d="m116.841 214.804 42.085-21.583c3.686-1.89 5.142-6.411 3.252-10.098-1.89-3.686-6.411-5.143-10.098-3.251l-31.162 15.98v-9.305c0-4.143-3.358-7.501-7.501-7.501s-7.501 3.358-7.501 7.501v21.582c.001 5.643 5.986 9.206 10.925 6.675z"/><path d="m194.762 204.839h66.23c4.143 0 7.501-3.358 7.501-7.501s-3.358-7.501-7.501-7.501h-66.23c-4.143 0-7.501 3.358-7.501 7.501s3.359 7.501 7.501 7.501z"/><path d="m116.841 283.4 42.085-21.582c3.686-1.891 5.142-6.412 3.252-10.098s-6.411-5.143-10.098-3.252l-31.162 15.981v-9.306c0-4.143-3.358-7.501-7.501-7.501s-7.501 3.358-7.501 7.501v21.582c.001 5.615 5.957 9.223 10.925 6.675z"/><path d="m194.762 273.436h66.23c4.143 0 7.501-3.359 7.501-7.501 0-4.143-3.358-7.501-7.501-7.501h-66.23c-4.143 0-7.501 3.358-7.501 7.501 0 4.142 3.359 7.501 7.501 7.501z"/><path d="m113.418 352.822c3.241 0 1.017.078 45.508-22.409 3.686-1.89 5.142-6.411 3.252-10.097s-6.411-5.143-10.098-3.252l-31.162 15.98v-9.306c0-4.142-3.358-7.501-7.501-7.501s-7.501 3.359-7.501 7.501v21.583c.001 4.134 3.356 7.501 7.502 7.501z"/><path d="m68.335 497.275h230.16c22.703 13.922 50.732 15.296 74.001 3.677 25.935 12.945 57.565 9.668 81.064-8.538 14.166-10.977 26.085-23.723 35.425-37.885 2.281-3.458 1.326-8.111-2.132-10.392s-8.111-1.326-10.392 2.132c-8.431 12.785-19.228 24.32-32.09 34.286-19.003 14.724-45.295 17.85-67.26 5.883-2.888-1.576-6.338-1.576-9.221-.004-.285.155-.569.308-.861.462-32.845 17.374-62.386-3.438-62.265-3.399-2.995-1.959-5.344-3.83-8.356-6.335-93.693-78.005-42.096-223.924 73.171-175.242 4.295 1.814 5.453-.51 17.978-4.491 83.151-26.425 128.777 52.297 101.763 123.746-1.465 3.875.488 8.204 4.363 9.669s8.204-.489 9.669-4.364c22.541-59.615-.126-126.7-54.699-144.688 7.885-17.081 8.403-36.271 1.007-51.987-.743-1.579-2.014-2.85-3.593-3.593-15.154-7.132-32.858-6.947-48.98-.347v-101.965c0-37.681-30.656-68.336-68.336-68.336h-19.951c-4.676-12.025-16.368-20.574-30.025-20.574h-40.042c-4.319-18.294-20.783-31.775-40.189-31.775s-35.87 13.481-40.188 31.775h-40.043c-13.658 0-25.349 8.549-30.025 20.574h-19.953c-37.68 0-68.335 30.655-68.335 68.336v305.039c0 37.68 30.655 68.336 68.335 68.336zm309.109-212.254c-1.046.378-3.347 1.24-4.945 1.878-19.605-7.848-40.6-11.889-61.225-8.765-6.384-12.06-8.371-26.658-3.442-39.424 29.758-11.477 65.774 13.733 69.612 46.311zm59.718-46.31c4.663 12.073 3.363 26.634-3.46 39.496-13.189-1.977-27.168-1.173-41.721 2.396-1.504-9.358-5.21-18.563-10.063-26.177 15.856-17.215 38.491-22.179 55.244-15.715zm-55.077-114.811v110.351c-2.941 2.112-6.625 5.248-9.588 8.292-7.098-7.291-15.767-13.151-25.12-16.889v-97.36c0-12.339-10.039-22.378-22.377-22.378h-14.498c.311-1.794.482-3.634.482-5.515v-29.835h17.768c29.407 0 53.333 23.925 53.333 53.334zm-263.773-73.907h46.499c3.971 0 7.254-3.095 7.488-7.059.819-13.86 12.347-24.716 26.244-24.716s25.425 10.857 26.245 24.717c.234 3.963 3.517 7.058 7.488 7.058h46.498c9.508 0 17.207 7.776 17.207 17.207-.117 34.42 1.061 36.926-2.997 42.889-3.176 4.643-8.582 7.52-14.21 7.52-170.561-.034-161.262.195-163.915-.348-8.166-1.738-13.753-8.837-13.753-16.858.034-36.143-.105-33.417.169-35.48 1.12-8.414 8.323-14.93 17.037-14.93zm-103.31 73.907c0-29.408 23.925-53.334 53.333-53.334h17.768v29.835c0 1.881.171 3.722.482 5.515h-14.498c-12.339 0-22.377 10.039-22.377 22.378v90.106c0 4.143 3.358 7.501 7.501 7.501s7.501-3.358 7.501-7.501v-90.106c0-4.067 3.309-7.376 7.375-7.376h21.393c6.132 7.451 15.22 11.692 24.832 11.692 173.748-.018 162.605.446 168.542-1.027 6.547-1.681 12.4-5.377 16.752-10.665h21.393c4.066 0 7.375 3.309 7.375 7.376v93.282c-11.424-1.695-22.197-.146-31.402 3.727-2.346.986-4.38 1.827-5.638 4.501-7.005 14.892-7.283 33.894.977 51.936-23.234 7.823-40.676 24.263-51.315 45.288h-50.234c-4.143 0-7.501 3.358-7.501 7.501 0 4.142 3.358 7.501 7.501 7.501h44.035c-.124.372-.829 2.611-1.176 3.795v.001c-8.368 28.567-5.191 59.349 6.183 86.092h-171.717c-4.066 0-7.375-3.309-7.375-7.376v-176.137c0-4.143-3.358-7.501-7.501-7.501s-7.501 3.358-7.501 7.501v176.139c0 12.34 10.039 22.378 22.377 22.378h179.192c7.124 12.406 16.459 24.356 28.236 35.351h-211.18c-29.408 0-53.333-23.926-53.333-53.334z"/></g></svg>