<svg id="Capa_1" enable-background="new 0 0 512 512" height="512" viewBox="0 0 512 512" width="512" xmlns="http://www.w3.org/2000/svg"><g><path d="m128.569 286.178c-4.142 0-7.5 3.358-7.5 7.5v13.352c0 4.142 3.358 7.5 7.5 7.5s7.5-3.358 7.5-7.5v-13.352c0-4.142-3.358-7.5-7.5-7.5z"/><path d="m267.537 286.178c-4.142 0-7.5 3.358-7.5 7.5v13.352c0 4.142 3.358 7.5 7.5 7.5s7.5-3.358 7.5-7.5v-13.352c0-4.142-3.358-7.5-7.5-7.5z"/><path d="m221.299 300.978c-3.123-2.721-7.86-2.396-10.582.727-3.197 3.669-7.813 5.773-12.665 5.773s-9.467-2.104-12.665-5.773c-2.721-3.123-7.459-3.448-10.582-.727s-3.448 7.459-.727 10.582c6.047 6.939 14.785 10.918 23.973 10.918s17.926-3.979 23.973-10.918c2.724-3.123 2.398-7.86-.725-10.582z"/><path d="m38.887 467.349c0 24.621 20.03 44.651 44.65 44.651h229.03c24.621 0 44.651-20.03 44.651-44.651v-13.296h13.296c24.62 0 44.65-20.03 44.65-44.651v-13.296h13.296c24.621 0 44.651-20.03 44.651-44.65v-306.805c.002-24.621-20.028-44.651-44.649-44.651h-229.03c-24.621 0-44.651 20.03-44.651 44.651v13.296h-13.296c-24.621 0-44.651 20.031-44.651 44.651v47.632l-55.749 55.749c-1.321 1.321-2.198 3.232-2.198 5.304zm72.947-364.751c0-16.349 13.301-29.651 29.651-29.651h229.03c16.349 0 29.65 13.301 29.65 29.651v64.267c0 4.142 3.358 7.5 7.5 7.5s7.5-3.358 7.5-7.5v-64.267c0-24.62-20.03-44.651-44.65-44.651h-200.734v-13.296c0-16.35 13.301-29.651 29.651-29.651h229.03c16.35 0 29.651 13.301 29.651 29.651v306.805c0 16.349-13.301 29.65-29.651 29.65h-13.296v-184.649c0-4.142-3.358-7.5-7.5-7.5s-7.5 3.358-7.5 7.5v192.149 20.796c0 16.35-13.301 29.651-29.65 29.651h-13.296v-62.829c0-4.142-3.358-7.5-7.5-7.5s-7.5 3.358-7.5 7.5v91.125c0 16.35-13.301 29.651-29.651 29.651h-229.031c-16.349 0-29.65-13.301-29.65-29.651v-248.567h55.981c17.617 0 31.907-14.335 31.907-31.907v-55.981h170.792c16.35 0 29.651 13.301 29.651 29.651v185.846c0 4.142 3.358 7.5 7.5 7.5s7.5-3.358 7.5-7.5v-185.846c0-24.62-20.03-44.651-44.651-44.651h-178.292c-1.89 0-3.865.757-5.304 2.198l-17.137 17.137v-32.631zm14.942 38.903v45.374c0 9.301-7.564 16.907-16.908 16.907h-45.374z"/></g></svg>